<svg width="108" height="108" viewBox="0 0 108 108" fill="none" xmlns="http://www.w3.org/2000/svg">
<path d="M54.0003 54C47.1253 54 41.2399 51.5521 36.3441 46.6562C31.4482 41.7604 29.0003 35.875 29.0003 29C29.0003 22.125 31.4482 16.2396 36.3441 11.3438C41.2399 6.44792 47.1253 4 54.0003 4C60.8753 4 66.7607 6.44792 71.6566 11.3438C76.5524 16.2396 79.0003 22.125 79.0003 29C79.0003 35.875 76.5524 41.7604 71.6566 46.6562C66.7607 51.5521 60.8753 54 54.0003 54ZM4.00031 104V86.5C4.00031 82.9583 4.91281 79.7021 6.73781 76.7312C8.55864 73.7646 10.9795 71.5 14.0003 69.9375C20.4586 66.7083 27.0211 64.2854 33.6878 62.6688C40.3545 61.0563 47.1253 60.25 54.0003 60.25C60.8753 60.25 67.6461 61.0563 74.3128 62.6688C80.9795 64.2854 87.542 66.7083 94.0003 69.9375C97.0211 71.5 99.442 73.7646 101.263 76.7312C103.088 79.7021 104 82.9583 104 86.5V104H4.00031Z" fill="white" stroke="#0B4778" stroke-width="8" stroke-linejoin="round"/>
</svg>
