<svg width="133" height="108" viewBox="0 0 133 108" fill="none" xmlns="http://www.w3.org/2000/svg">
<path d="M97.7497 72.75C93.3747 72.75 89.6768 71.2396 86.6559 68.2188C83.6351 65.1979 82.1247 61.5 82.1247 57.125C82.1247 52.75 83.6351 49.0521 86.6559 46.0313C89.6768 43.0104 93.3747 41.5 97.7497 41.5C102.125 41.5 105.823 43.0104 108.843 46.0313C111.864 49.0521 113.375 52.75 113.375 57.125C113.375 61.5 111.864 65.1979 108.843 68.2188C105.823 71.2396 102.125 72.75 97.7497 72.75ZM72.7497 104C70.9789 104 69.4955 103.4 68.2997 102.2C67.0997 101.004 66.4997 99.5208 66.4997 97.75V95.25C66.4997 92.75 67.1497 90.4333 68.4497 88.3C69.7539 86.1625 71.6039 84.625 73.9997 83.6875C77.7497 82.125 81.6309 80.9542 85.6434 80.175C89.6518 79.3917 93.6872 79 97.7497 79C101.812 79 105.85 79.3917 109.862 80.175C113.871 80.9542 117.75 82.125 121.5 83.6875C123.896 84.625 125.746 86.1625 127.05 88.3C128.35 90.4333 129 92.75 129 95.25V97.75C129 99.5208 128.4 101.004 127.2 102.2C126.004 103.4 124.521 104 122.75 104H72.7497ZM53.9997 54C47.1247 54 41.2393 51.5521 36.3434 46.6562C31.4476 41.7604 28.9997 35.875 28.9997 29C28.9997 22.125 31.4476 16.2396 36.3434 11.3438C41.2393 6.44792 47.1247 4 53.9997 4C60.8747 4 66.7601 6.44792 71.6559 11.3438C76.5518 16.2396 78.9997 22.125 78.9997 29C78.9997 35.875 76.5518 41.7604 71.6559 46.6562C66.7601 51.5521 60.8747 54 53.9997 54ZM10.2497 104C8.47886 104 6.99553 103.4 5.7997 102.2C4.5997 101.004 3.99969 99.5208 3.99969 97.75V85.25C3.99969 82.5417 4.9372 79.8604 6.81219 77.2063C8.68719 74.5479 11.4476 72.2292 15.0934 70.25C20.7184 67.2292 26.8643 64.8083 33.5309 62.9875C40.1976 61.1625 47.0205 60.25 53.9997 60.25C56.8122 60.25 59.808 60.4583 62.9872 60.875C66.1622 61.2917 69.4164 61.9167 72.7497 62.75V70.875C71.2914 71.3958 70.0414 71.9167 68.9997 72.4375C67.958 72.9583 66.8643 73.5312 65.7184 74.1562C61.8643 76.3438 58.9476 79.2083 56.9684 82.75C54.9893 86.2917 53.9997 89.2083 53.9997 91.5V104H10.2497Z" fill="white"/>
<path d="M68.2997 102.2L71.133 99.3765L71.1232 99.3667L68.2997 102.2ZM68.4497 88.3L65.0351 86.2166L65.0339 86.2185L68.4497 88.3ZM73.9997 83.6875L75.4573 87.4125C75.4844 87.4019 75.5113 87.391 75.5381 87.3798L73.9997 83.6875ZM85.6434 80.175L86.4059 84.1017L86.4106 84.1007L85.6434 80.175ZM109.862 80.175L109.096 84.1009L109.099 84.1015L109.862 80.175ZM121.5 83.6875L119.961 87.3798C119.988 87.391 120.015 87.4019 120.042 87.4125L121.5 83.6875ZM127.05 88.3L130.465 86.2185L130.464 86.2166L127.05 88.3ZM127.2 102.2L124.376 99.3666L124.366 99.3765L127.2 102.2ZM5.7997 102.2L8.63305 99.3765L8.6232 99.3667L5.7997 102.2ZM6.81219 77.2063L10.0792 79.5142L10.0809 79.5118L6.81219 77.2063ZM15.0934 70.25L13.2009 66.726C13.1956 66.7289 13.1904 66.7317 13.1851 66.7346L15.0934 70.25ZM33.5309 62.9875L34.5848 66.8462L34.5871 66.8456L33.5309 62.9875ZM62.9872 60.875L63.5077 56.909L63.507 56.9089L62.9872 60.875ZM72.7497 62.75H76.7497C76.7497 60.9145 75.5005 59.3146 73.7198 58.8694L72.7497 62.75ZM72.7497 70.875L74.095 74.642C75.687 74.0734 76.7497 72.5655 76.7497 70.875H72.7497ZM68.9997 72.4375L70.7885 76.0152L68.9997 72.4375ZM65.7184 74.1562L63.803 70.6447C63.7833 70.6554 63.7636 70.6664 63.744 70.6775L65.7184 74.1562ZM53.9997 104V108C56.2088 108 57.9997 106.209 57.9997 104H53.9997ZM97.7497 68.75C94.4069 68.75 91.7351 67.641 89.4844 65.3903L83.8275 71.0472C87.6185 74.8382 92.3424 76.75 97.7497 76.75V68.75ZM89.4844 65.3903C87.2337 63.1396 86.1247 60.4678 86.1247 57.125H78.1247C78.1247 62.5322 80.0365 67.2562 83.8275 71.0472L89.4844 65.3903ZM86.1247 57.125C86.1247 53.7822 87.2337 51.1104 89.4844 48.8597L83.8275 43.2028C80.0365 46.9938 78.1247 51.7178 78.1247 57.125H86.1247ZM89.4844 48.8597C91.7351 46.609 94.4069 45.5 97.7497 45.5V37.5C92.3424 37.5 87.6185 39.4118 83.8275 43.2028L89.4844 48.8597ZM97.7497 45.5C101.092 45.5 103.764 46.609 106.015 48.8597L111.672 43.2028C107.881 39.4118 103.157 37.5 97.7497 37.5V45.5ZM106.015 48.8597C108.266 51.1104 109.375 53.7822 109.375 57.125H117.375C117.375 51.7178 115.463 46.9938 111.672 43.2028L106.015 48.8597ZM109.375 57.125C109.375 60.4678 108.266 63.1396 106.015 65.3903L111.672 71.0472C115.463 67.2562 117.375 62.5322 117.375 57.125H109.375ZM106.015 65.3903C103.764 67.641 101.092 68.75 97.7497 68.75V76.75C103.157 76.75 107.881 74.8382 111.672 71.0472L106.015 65.3903ZM72.7497 100C71.9885 100 71.5413 99.7861 71.133 99.3765L65.4664 105.024C67.4498 107.014 69.9693 108 72.7497 108V100ZM71.1232 99.3667C70.7135 98.9584 70.4997 98.5112 70.4997 97.75H62.4997C62.4997 100.53 63.4858 103.05 65.4762 105.033L71.1232 99.3667ZM70.4997 97.75V95.25H62.4997V97.75H70.4997ZM70.4997 95.25C70.4997 93.4837 70.9478 91.8873 71.8655 90.3815L65.0339 86.2185C63.3515 88.9794 62.4997 92.0163 62.4997 95.25H70.4997ZM71.8643 90.3834C72.6998 89.014 73.8516 88.0408 75.4573 87.4125L72.5421 79.9625C69.3561 81.2092 66.8079 83.311 65.0351 86.2166L71.8643 90.3834ZM75.5381 87.3798C79.0366 85.9221 82.6577 84.8295 86.4059 84.1017L84.8809 76.2483C80.6042 77.0788 76.4628 78.3279 72.4612 79.9952L75.5381 87.3798ZM86.4106 84.1007C90.1676 83.3665 93.9461 83 97.7497 83V75C93.4283 75 89.136 75.4168 84.8762 76.2493L86.4106 84.1007ZM97.7497 83C101.553 83 105.334 83.3665 109.096 84.1009L110.629 76.2491C106.365 75.4168 102.071 75 97.7497 75V83ZM109.099 84.1015C112.843 84.8293 116.462 85.9219 119.961 87.3798L123.038 79.9952C119.037 78.3281 114.898 77.079 110.625 76.2485L109.099 84.1015ZM120.042 87.4125C121.648 88.0408 122.8 89.014 123.635 90.3834L130.464 86.2166C128.691 83.311 126.143 81.2092 122.957 79.9625L120.042 87.4125ZM123.634 90.3815C124.552 91.8873 125 93.4837 125 95.25H133C133 92.0163 132.148 88.9794 130.465 86.2185L123.634 90.3815ZM125 95.25V97.75H133V95.25H125ZM125 97.75C125 98.5112 124.786 98.9584 124.376 99.3667L130.023 105.033C132.014 103.05 133 100.53 133 97.75H125ZM124.366 99.3765C123.958 99.7861 123.511 100 122.75 100V108C125.53 108 128.05 107.014 130.033 105.024L124.366 99.3765ZM122.75 100H72.7497V108H122.75V100ZM53.9997 50C48.194 50 43.3235 47.9795 39.1719 43.8278L33.515 49.4847C39.155 55.1247 46.0554 58 53.9997 58V50ZM39.1719 43.8278C35.0202 39.6761 32.9997 34.8057 32.9997 29H24.9997C24.9997 36.9443 27.875 43.8447 33.515 49.4847L39.1719 43.8278ZM32.9997 29C32.9997 23.1943 35.0202 18.3239 39.1719 14.1722L33.515 8.51532C27.875 14.1553 24.9997 21.0557 24.9997 29H32.9997ZM39.1719 14.1722C43.3235 10.0205 48.194 8 53.9997 8V0C46.0554 0 39.155 2.87533 33.515 8.51532L39.1719 14.1722ZM53.9997 8C59.8054 8 64.6758 10.0205 68.8275 14.1722L74.4844 8.51532C68.8444 2.87533 61.944 0 53.9997 0V8ZM68.8275 14.1722C72.9792 18.3239 74.9997 23.1943 74.9997 29H82.9997C82.9997 21.0557 80.1244 14.1553 74.4844 8.51532L68.8275 14.1722ZM74.9997 29C74.9997 34.8057 72.9792 39.6761 68.8275 43.8278L74.4844 49.4847C80.1244 43.8447 82.9997 36.9443 82.9997 29H74.9997ZM68.8275 43.8278C64.6758 47.9795 59.8054 50 53.9997 50V58C61.944 58 68.8444 55.1247 74.4844 49.4847L68.8275 43.8278ZM10.2497 100C9.48846 100 9.04127 99.7861 8.63304 99.3765L2.96635 105.024C4.94979 107.014 7.46926 108 10.2497 108V100ZM8.6232 99.3667C8.21355 98.9584 7.99969 98.5112 7.99969 97.75H-0.000305176C-0.000305176 100.53 0.985845 103.05 2.97619 105.033L8.6232 99.3667ZM7.99969 97.75V85.25H-0.000305176V97.75H7.99969ZM7.99969 85.25C7.99969 83.5223 8.58377 81.6311 10.0792 79.5142L3.54518 74.8983C1.29062 78.0898 -0.000305176 81.561 -0.000305176 85.25H7.99969ZM10.0809 79.5118C11.5177 77.4748 13.7521 75.5295 17.0018 73.7654L13.1851 66.7346C9.14307 68.9288 5.85671 71.6211 3.54347 74.9007L10.0809 79.5118ZM16.986 73.774C22.3241 70.9072 28.1857 68.5939 34.5848 66.8462L32.477 59.1288C25.5428 61.0227 19.1128 63.5511 13.2009 66.726L16.986 73.774ZM34.5871 66.8456C40.9062 65.1157 47.3738 64.25 53.9997 64.25V56.25C46.6672 56.25 39.489 57.2093 32.4748 59.1294L34.5871 66.8456ZM53.9997 64.25C56.6163 64.25 59.4372 64.4439 62.4674 64.8411L63.507 56.9089C60.1788 56.4727 57.0081 56.25 53.9997 56.25V64.25ZM62.4667 64.841C65.4798 65.2364 68.5837 65.8316 71.7795 66.6306L73.7198 58.8694C70.249 58.0017 66.8446 57.3469 63.5077 56.909L62.4667 64.841ZM68.7497 62.75V70.875H76.7497V62.75H68.7497ZM71.4043 67.108C69.8405 67.6665 68.4343 68.248 67.2108 68.8598L70.7885 76.0152C71.6484 75.5853 72.7422 75.1251 74.095 74.642L71.4043 67.108ZM67.2108 68.8598C66.1219 69.4043 64.9858 69.9995 63.803 70.6447L67.6339 77.6678C68.7428 77.063 69.7942 76.5124 70.7885 76.0152L67.2108 68.8598ZM63.744 70.6775C59.3147 73.1915 55.8451 76.5605 53.4767 80.7987L60.4602 84.7013C62.0501 81.8562 64.4139 79.496 67.6929 77.635L63.744 70.6775ZM53.4767 80.7987C51.3854 84.5409 49.9997 88.1823 49.9997 91.5H57.9997C57.9997 90.2343 58.5931 88.0424 60.4602 84.7013L53.4767 80.7987ZM49.9997 91.5V104H57.9997V91.5H49.9997ZM53.9997 100H10.2497V108H53.9997V100Z" fill="#0B4778"/>
</svg>
