<svg width="240" height="240" viewBox="0 0 240 240" fill="none" xmlns="http://www.w3.org/2000/svg">
<ellipse opacity="0.5" cx="120.5" cy="120" rx="119.5" ry="120" fill="#E7F4D6"/>
<path d="M187.959 205.957V173.911H156.734V152.548H187.959V120.502H208.775V152.548H240V173.911H208.775V205.957H187.959Z" fill="#559800"/>
<path d="M120 240C103.4 240 87.8 236.848 73.2 230.544C58.6 224.248 45.9 215.7 35.1 204.9C24.3 194.1 15.752 181.4 9.456 166.8C3.152 152.2 0 136.6 0 120C0 103.4 3.152 87.8 9.456 73.2C15.752 58.6 24.3 45.9 35.1 35.1C45.9 24.3 58.6 15.748 73.2 9.444C87.8 3.148 103.4 0 120 0C133 0 145.3 1.9 156.9 5.7C168.5 9.5 179.2 14.8 189 21.6L171.6 39.3C164 34.5 155.9 30.748 147.3 28.044C138.7 25.348 129.6 24 120 24C93.4 24 70.752 33.348 52.056 52.044C33.352 70.748 24 93.4 24 120C24 146.6 33.352 169.252 52.056 187.956C70.752 206.652 93.4 216 120 216C126.4 216 132.6 215.4 138.6 214.2C144.6 213 150.4 211.3 156 209.1L174 227.4C165.8 231.4 157.2 234.5 148.2 236.7C139.2 238.9 129.8 240 120 240Z" fill="#005EA2"/>
<path d="M100.567 175.215L50.8691 124.211L67.2402 107.409L100.567 141.612L217.504 21.3018L233.875 38.1032L100.567 175.215Z" fill="#00BDE3"/>
</svg>
